<svg width="40" height="41" viewBox="0 0 40 41" fill="none" xmlns="http://www.w3.org/2000/svg">
<rect y="0.5" width="40" height="40" rx="20" fill="#FBF2C0"/>
<path d="M21.7289 12.0101L23.4889 15.5301C23.7289 16.0201 24.3689 16.4901 24.9089 16.5801L28.0989 17.1101C30.1389 17.4501 30.6189 18.9301 29.1489 20.3901L26.6689 22.8701C26.2489 23.2901 26.0189 24.1001 26.1489 24.6801L26.8589 27.7501C27.4189 30.1801 26.1289 31.1201 23.9789 29.8501L20.9889 28.0801C20.4489 27.7601 19.5589 27.7601 19.0089 28.0801L16.0189 29.8501C13.8789 31.1201 12.5789 30.1701 13.1389 27.7501L13.8489 24.6801C13.9789 24.1001 13.7489 23.2901 13.3289 22.8701L10.8489 20.3901C9.38893 18.9301 9.85893 17.4501 11.8989 17.1101L15.0889 16.5801C15.6189 16.4901 16.2589 16.0201 16.4989 15.5301L18.2589 12.0101C19.2189 10.1001 20.7789 10.1001 21.7289 12.0101Z" stroke="#FFBB33" stroke-width="1.5" stroke-linecap="round" stroke-linejoin="round"/>
</svg>
