<svg width="40" height="41" viewBox="0 0 40 41" fill="none" xmlns="http://www.w3.org/2000/svg">
<rect y="0.5" width="40" height="40" rx="20" fill="#E6E0FF"/>
<path d="M30 25.2402V13.1702C30 11.9702 29.02 11.0802 27.83 11.1802H27.77C25.67 11.3602 22.48 12.4302 20.7 13.5502L20.53 13.6602C20.24 13.8402 19.76 13.8402 19.47 13.6602L19.22 13.5102C17.44 12.4002 14.26 11.3402 12.16 11.1702C10.97 11.0702 10 11.9702 10 13.1602V25.2402C10 26.2002 10.78 27.1002 11.74 27.2202L12.03 27.2602C14.2 27.5502 17.55 28.6502 19.47 29.7002L19.51 29.7202C19.78 29.8702 20.21 29.8702 20.47 29.7202C22.39 28.6602 25.75 27.5502 27.93 27.2602L28.26 27.2202C29.22 27.1002 30 26.2002 30 25.2402Z" stroke="#917FF0" stroke-width="1.5" stroke-linecap="round" stroke-linejoin="round"/>
<path d="M20 13.9902V28.9902" stroke="#917FF0" stroke-width="1.5" stroke-linecap="round" stroke-linejoin="round"/>
<path d="M15.75 16.9902H13.5" stroke="#917FF0" stroke-width="1.5" stroke-linecap="round" stroke-linejoin="round"/>
<path d="M16.5 19.9902H13.5" stroke="#917FF0" stroke-width="1.5" stroke-linecap="round" stroke-linejoin="round"/>
</svg>
