<svg width="96" height="96" viewBox="0 0 96 96" fill="none" xmlns="http://www.w3.org/2000/svg">
<rect width="96" height="96" rx="48" fill="#E1E6ED"/>
<path d="M41.4522 60.5H54.5522C58.0022 60.5 59.3772 58.3875 59.5397 55.8125L60.1897 45.4875C60.3647 42.7875 58.2147 40.5 55.5022 40.5C54.7397 40.5 54.0397 40.0625 53.6897 39.3875L52.7897 37.575C52.2147 36.4375 50.7147 35.5 49.4397 35.5H46.5772C45.2897 35.5 43.7897 36.4375 43.2147 37.575L42.3147 39.3875C41.9647 40.0625 41.2647 40.5 40.5022 40.5C37.7897 40.5 35.6397 42.7875 35.8147 45.4875L36.4647 55.8125C36.6147 58.3875 38.0022 60.5 41.4522 60.5Z" stroke="#3F434C" stroke-width="1.875" stroke-linecap="round" stroke-linejoin="round"/>
<path d="M46.125 43H49.875" stroke="#3F434C" stroke-width="1.875" stroke-linecap="round" stroke-linejoin="round"/>
<path d="M48 55.5C50.2375 55.5 52.0625 53.675 52.0625 51.4375C52.0625 49.2 50.2375 47.375 48 47.375C45.7625 47.375 43.9375 49.2 43.9375 51.4375C43.9375 53.675 45.7625 55.5 48 55.5Z" stroke="#3F434C" stroke-width="1.875" stroke-linecap="round" stroke-linejoin="round"/>
</svg>
