<svg width="241" height="181" viewBox="0 0 241 181" fill="none" xmlns="http://www.w3.org/2000/svg">
<path d="M226.924 41.5066C234.421 34.0093 234.421 21.8539 226.924 14.3567C219.427 6.85948 207.271 6.85949 199.774 14.3567C192.277 21.8539 192.277 34.0093 199.774 41.5066C207.271 49.0038 219.427 49.0038 226.924 41.5066Z" fill="#5EDDD7"/>
<path d="M224.381 38.9636C230.474 32.8708 230.474 22.9925 224.381 16.8997C218.288 10.8069 208.41 10.8069 202.317 16.8997C196.224 22.9925 196.224 32.8708 202.317 38.9636C208.41 45.0564 218.288 45.0564 224.381 38.9636Z" fill="white"/>
<path d="M212.84 10.6611V13.8445C213.007 13.8367 213.173 13.8334 213.349 13.8334C213.526 13.8334 213.689 13.8334 213.858 13.8445V10.6611H212.84Z" fill="#BF4929"/>
<path d="M213.349 42.0277C213.177 42.0277 213.007 42.0277 212.84 42.0166V45.2H213.862V42.0166C213.689 42.0244 213.519 42.0277 213.349 42.0277Z" fill="#BF4929"/>
<path d="M199.263 27.4229H196.082V28.4407H199.263C199.255 28.2731 199.252 28.1077 199.252 27.9312C199.252 27.7547 199.255 27.5905 199.263 27.4229Z" fill="#BF4929"/>
<path d="M227.438 27.4229C227.444 27.5905 227.449 27.7558 227.449 27.9312C227.449 28.1066 227.449 28.2731 227.438 28.4407H230.624V27.4229H227.438Z" fill="#BF4929"/>
<path d="M198.521 19.0625L198.023 19.9505L200.798 21.5044C200.954 21.2003 201.119 20.905 201.297 20.6164L198.521 19.0625Z" fill="#BF4929"/>
<path d="M225.902 34.3604C225.746 34.6637 225.58 34.9597 225.404 35.2483L228.179 36.8023L228.675 35.9143L225.902 34.3604Z" fill="#BF4929"/>
<path d="M206.032 39.9834L204.479 42.7583L205.366 43.2556L206.92 40.4807C206.62 40.3286 206.317 40.1588 206.032 39.9834Z" fill="#BF4929"/>
<path d="M221.327 12.6074L219.773 15.3823C220.078 15.5377 220.374 15.7035 220.661 15.8796L222.215 13.1047L221.327 12.6074Z" fill="#BF4929"/>
<path d="M204.595 13.0371L203.732 13.5788L205.427 16.2726C205.707 16.081 205.994 15.9001 206.288 15.7299L204.595 13.0371Z" fill="#BF4929"/>
<path d="M221.277 39.5918C220.997 39.7827 220.708 39.9636 220.414 40.1335L222.105 42.8251L222.967 42.2846L221.277 39.5918Z" fill="#BF4929"/>
<path d="M201.147 35.001L198.455 36.6914L198.998 37.5539L201.692 35.8612C201.5 35.5785 201.318 35.2918 201.147 35.001Z" fill="#BF4929"/>
<path d="M227.701 18.3145L225.01 20.0049C225.2 20.2846 225.38 20.5717 225.55 20.8662L228.243 19.1758L227.701 18.3145Z" fill="#BF4929"/>
<path d="M213.576 17.8857H213.125V28.1562H213.576V17.8857Z" fill="#1B4E51"/>
<path d="M213.577 27.7061H205.055V28.1567H213.577V27.7061Z" fill="#1B4E51"/>
<path d="M213.514 27.3926H213.188C212.98 27.3926 212.812 27.5605 212.812 27.7677V28.0941C212.812 28.3013 212.98 28.4692 213.188 28.4692H213.514C213.721 28.4692 213.889 28.3013 213.889 28.0941V27.7677C213.889 27.5605 213.721 27.3926 213.514 27.3926Z" fill="#1B4E51"/>
<g opacity="0.21">
<path d="M231.559 175.35C231.559 174.093 207.14 173.074 177.008 173.074C146.876 173.074 122.457 174.093 122.457 175.35C122.457 176.112 131.4 176.785 145.136 177.198C138.286 177.602 134.115 178.136 134.115 178.722C134.115 179.98 153.317 181 177.008 181C200.699 181 219.901 179.98 219.901 178.722C219.901 178.136 215.73 177.602 208.881 177.198C222.616 176.785 231.559 176.112 231.559 175.35Z" fill="#1D1D1D"/>
</g>
<g opacity="0.21">
<path d="M109.602 175.35C109.602 174.093 85.1832 173.074 55.0511 173.074C24.9191 173.074 0.5 174.093 0.5 175.35C0.5 176.112 9.44294 176.785 23.1787 177.198C16.328 177.602 12.1568 178.136 12.1568 178.722C12.1568 179.98 31.3591 181 55.0511 181C78.7432 181 97.9444 179.98 97.9444 178.722C97.9444 178.136 93.7732 177.602 86.9236 177.198C100.659 176.785 109.602 176.112 109.602 175.35Z" fill="#1D1D1D"/>
</g>
<path d="M174.219 15.8389H57.8389C55.6173 15.8389 53.8164 17.6398 53.8164 19.8614V89.4114C53.8164 91.6329 55.6173 93.4339 57.8389 93.4339H174.219C176.441 93.4339 178.242 91.6329 178.242 89.4114V19.8614C178.242 17.6398 176.441 15.8389 174.219 15.8389Z" fill="#984D23"/>
<path d="M173.4 19.6787H58.6602V89.5961H173.4V19.6787Z" fill="#1E9346"/>
<path d="M172.47 20.6992H59.584V89.5955H172.47V20.6992Z" fill="#24A049"/>
<path d="M163.074 101.882H159.637C159.401 101.882 159.209 102.074 159.209 102.31V145.201C159.209 145.438 159.401 145.63 159.637 145.63H163.074C163.31 145.63 163.502 145.438 163.502 145.201V102.31C163.502 102.074 163.31 101.882 163.074 101.882Z" fill="#984D23"/>
<path d="M72.4235 101.882H68.987C68.7504 101.882 68.5586 102.074 68.5586 102.31V145.201C68.5586 145.438 68.7504 145.63 68.987 145.63H72.4235C72.6601 145.63 72.8519 145.438 72.8519 145.201V102.31C72.8519 102.074 72.6601 101.882 72.4235 101.882Z" fill="#984D23"/>
<path d="M173.009 97.5869H59.0491C58.0695 97.5869 57.2754 98.381 57.2754 99.3606V100.11C57.2754 101.089 58.0695 101.884 59.0491 101.884H173.009C173.988 101.884 174.782 101.089 174.782 100.11V99.3606C174.782 98.381 173.988 97.5869 173.009 97.5869Z" fill="#833F1D"/>
<path d="M73.2769 101.882H158.777C158.891 101.882 159 101.927 159.08 102.007C159.16 102.088 159.206 102.197 159.206 102.31V110.39C159.206 110.503 159.16 110.612 159.08 110.693C159 110.773 158.891 110.818 158.777 110.818H73.2769C73.1636 110.818 73.0549 110.773 72.9748 110.693C72.8946 110.613 72.8496 110.504 72.8496 110.391V102.311C72.8495 102.255 72.8604 102.199 72.8818 102.147C72.9032 102.095 72.9346 102.048 72.9743 102.008C73.014 101.968 73.0611 101.937 73.1131 101.915C73.165 101.893 73.2207 101.882 73.2769 101.882Z" fill="#C67852"/>
<path d="M87.9455 78.5918H86.4637C85.7599 78.5918 85.1895 79.1623 85.1895 79.866V96.3123C85.1895 97.016 85.7599 97.5865 86.4637 97.5865H87.9455C88.6492 97.5865 89.2197 97.016 89.2197 96.3123V79.866C89.2197 79.1623 88.6492 78.5918 87.9455 78.5918Z" fill="#71C8C8"/>
<path d="M83.5891 75.9785H78.6942C77.9904 75.9785 77.4199 76.549 77.4199 77.2527V96.313C77.4199 97.0167 77.9904 97.5872 78.6942 97.5872H83.5891C84.2928 97.5872 84.8633 97.0167 84.8633 96.313V77.2527C84.8633 76.549 84.2928 75.9785 83.5891 75.9785Z" fill="#F4E201"/>
<path d="M75.8154 74.8369H74.1238C73.4201 74.8369 72.8496 75.4074 72.8496 76.1111V96.3124C72.8496 97.0161 73.4201 97.5866 74.1238 97.5866H75.8154C76.5192 97.5866 77.0896 97.0161 77.0896 96.3124V76.1111C77.0896 75.4074 76.5192 74.8369 75.8154 74.8369Z" fill="#7153A1"/>
<path d="M87.2041 80.6074C87.1158 80.6074 87.0311 80.6425 86.9686 80.7049C86.9062 80.7674 86.8711 80.8521 86.8711 80.9404V87.4203C86.8711 87.5087 86.9062 87.5934 86.9686 87.6558C87.0311 87.7183 87.1158 87.7533 87.2041 87.7533C87.2924 87.7533 87.3771 87.7183 87.4395 87.6558C87.502 87.5934 87.5371 87.5087 87.5371 87.4203V80.9404C87.5371 80.8521 87.502 80.7674 87.4395 80.7049C87.3771 80.6425 87.2924 80.6074 87.2041 80.6074Z" fill="#419894"/>
<path d="M88.8602 95.8765H85.5525C85.4608 95.8816 85.3744 95.9217 85.3113 95.9885C85.2481 96.0553 85.2129 96.1437 85.2129 96.2356C85.2129 96.3275 85.2481 96.416 85.3113 96.4827C85.3744 96.5495 85.4608 96.5896 85.5525 96.5947H88.8647C88.9135 96.5974 88.9624 96.5901 89.0083 96.5733C89.0542 96.5565 89.0962 96.5305 89.1318 96.4969C89.1673 96.4633 89.1956 96.4227 89.2149 96.3778C89.2343 96.3329 89.2443 96.2845 89.2443 96.2356C89.2443 96.1867 89.2343 96.1383 89.2149 96.0934C89.1956 96.0485 89.1673 96.008 89.1318 95.9743C89.0962 95.9407 89.0542 95.9147 89.0083 95.8979C88.9624 95.8811 88.9135 95.8738 88.8647 95.8765H88.8602Z" fill="#419894"/>
<path d="M81.1387 82.4567C82.3372 82.4567 83.3087 81.435 83.3087 80.1747C83.3087 78.9143 82.3372 77.8926 81.1387 77.8926C79.9403 77.8926 78.9688 78.9143 78.9688 80.1747C78.9688 81.435 79.9403 82.4567 81.1387 82.4567Z" fill="#775120"/>
<path d="M82.4224 88.8799H79.8573C79.0322 88.8799 78.3633 89.5488 78.3633 90.3739V95.099C78.3633 95.9241 79.0322 96.593 79.8573 96.593H82.4224C83.2475 96.593 83.9164 95.9241 83.9164 95.099V90.3739C83.9164 89.5488 83.2475 88.8799 82.4224 88.8799Z" fill="#775120"/>
<path d="M75.0029 78.6641H74.9441C74.7074 78.6641 74.5156 78.8559 74.5156 79.0925V93.3299C74.5156 93.5666 74.7074 93.7584 74.9441 93.7584H75.0029C75.2395 93.7584 75.4313 93.5666 75.4313 93.3299V79.0925C75.4313 78.8559 75.2395 78.6641 75.0029 78.6641Z" fill="#412A6B"/>
<g opacity="0.6">
<path d="M73.2809 101.882H158.781C158.895 101.882 159.004 101.927 159.084 102.007C159.164 102.088 159.209 102.197 159.209 102.31V108.701C159.209 108.815 159.164 108.924 159.084 109.004C159.004 109.085 158.895 109.13 158.781 109.13H73.2809C73.1675 109.13 73.0588 109.085 72.9787 109.005C72.8986 108.925 72.8536 108.816 72.8536 108.703V102.316C72.8527 102.259 72.8631 102.203 72.8842 102.15C72.9052 102.098 72.9366 102.05 72.9764 102.009C73.0161 101.969 73.0635 101.937 73.1158 101.915C73.1681 101.893 73.2242 101.882 73.2809 101.882Z" fill="#833F1D"/>
</g>
<path d="M126.62 90.8783H125.778C125.64 90.8787 125.506 90.8318 125.398 90.7454C125.29 90.6589 125.215 90.5382 125.185 90.4032C123.444 82.5225 116.44 76.5909 108.063 76.501H107.688C99.3079 76.5909 92.3074 82.5203 90.5659 90.4032C90.5358 90.538 90.4607 90.6585 90.353 90.7449C90.2452 90.8312 90.1113 90.8783 89.9732 90.8783H89.1318C89.0082 90.878 88.8857 90.9021 88.7713 90.9492C88.657 90.9963 88.5531 91.0655 88.4656 91.1528C88.3781 91.2402 88.3086 91.3439 88.2612 91.4581C88.2139 91.5723 88.1895 91.6948 88.1895 91.8184V96.6334C88.1896 96.757 88.2141 96.8793 88.2615 96.9934C88.309 97.1074 88.3785 97.211 88.466 97.2982C88.5535 97.3855 88.6574 97.4546 88.7716 97.5016C88.8859 97.5487 89.0083 97.5727 89.1318 97.5724H126.62C126.869 97.5724 127.108 97.4736 127.285 97.2976C127.461 97.1216 127.561 96.8828 127.562 96.6334V91.8184C127.561 91.5689 127.462 91.3297 127.285 91.1535C127.108 90.9772 126.869 90.8783 126.62 90.8783ZM108.41 90.9826C108.41 91.0048 108.397 91.0259 108.392 91.047L108.382 91.0747C108.371 91.1034 108.357 91.1312 108.342 91.158C108.325 91.1854 108.305 91.2111 108.283 91.2346C108.271 91.2501 108.252 91.2657 108.238 91.2812C108.226 91.2924 108.213 91.3025 108.2 91.3111C108.182 91.3234 108.163 91.3356 108.142 91.3478L108.105 91.37C108.081 91.3789 108.055 91.3877 108.031 91.3944L107.994 91.4066C107.989 91.4066 107.979 91.4066 107.97 91.4066C107.94 91.4123 107.909 91.4153 107.878 91.4155C107.846 91.4154 107.814 91.4124 107.782 91.4066C107.777 91.4066 107.767 91.4066 107.758 91.4066L107.73 91.3977C107.705 91.3914 107.68 91.3833 107.656 91.3733L107.616 91.3511L107.558 91.3145C107.546 91.306 107.534 91.296 107.524 91.2845C107.506 91.2701 107.49 91.2546 107.475 91.2379C107.454 91.2135 107.434 91.188 107.416 91.1613C107.4 91.1348 107.387 91.1069 107.376 91.0781C107.373 91.0702 107.37 91.062 107.367 91.0536C107.359 91.0315 107.352 91.0089 107.346 90.9859C107.33 90.9067 107.332 90.825 107.352 90.7466C107.372 90.6683 107.408 90.5952 107.46 90.5328C107.511 90.4703 107.575 90.42 107.648 90.3855C107.721 90.351 107.801 90.333 107.882 90.333C107.963 90.333 108.042 90.351 108.115 90.3855C108.188 90.42 108.253 90.4703 108.304 90.5328C108.355 90.5952 108.392 90.6683 108.412 90.7466C108.431 90.825 108.433 90.9067 108.417 90.9859L108.41 90.9826ZM117.511 90.8783H109.631C109.636 90.6433 109.595 90.4095 109.509 90.1907C109.424 89.9719 109.295 89.7725 109.131 89.6042C108.967 89.4359 108.77 89.3022 108.554 89.2109C108.337 89.1196 108.105 89.0725 107.87 89.0725C107.635 89.0725 107.402 89.1196 107.185 89.2109C106.969 89.3022 106.773 89.4359 106.608 89.6042C106.444 89.7725 106.316 89.9719 106.23 90.1907C106.144 90.4095 106.103 90.6433 106.109 90.8783H98.2279C98.1278 90.8773 98.0295 90.8516 97.9417 90.8036C97.8539 90.7556 97.7793 90.6866 97.7244 90.6029C97.6696 90.5192 97.6362 90.4233 97.6272 90.3236C97.6182 90.2239 97.6339 90.1235 97.6729 90.0314C98.5041 88.0092 99.9176 86.2796 101.734 85.0625C103.55 83.8453 105.687 83.1955 107.873 83.1955C110.06 83.1955 112.197 83.8453 114.013 85.0625C115.829 86.2796 117.243 88.0092 118.074 90.0314C118.113 90.1236 118.128 90.224 118.119 90.3237C118.11 90.4234 118.076 90.5192 118.021 90.6029C117.967 90.6866 117.892 90.7554 117.804 90.8035C117.716 90.8515 117.618 90.8772 117.518 90.8783H117.511Z" fill="#FCEA03"/>
<path d="M90.5048 94.0996C90.4403 94.0996 90.3785 94.1252 90.3329 94.1708C90.2873 94.2164 90.2617 94.2782 90.2617 94.3427V96.9111H90.7479V94.3427C90.7479 94.2782 90.7223 94.2164 90.6767 94.1708C90.6311 94.1252 90.5693 94.0996 90.5048 94.0996Z" fill="#353434"/>
<path d="M92.1591 95.5068C92.0948 95.5068 92.0331 95.5323 91.9876 95.5776C91.942 95.623 91.9163 95.6845 91.916 95.7488V96.9109H92.4022V95.7488C92.4019 95.6845 92.3761 95.623 92.3306 95.5776C92.285 95.5323 92.2234 95.5068 92.1591 95.5068Z" fill="#353434"/>
<path d="M93.665 94.0996C93.6005 94.0996 93.5387 94.1252 93.4931 94.1708C93.4475 94.2164 93.4219 94.2782 93.4219 94.3427V96.9111H93.9081V94.3427C93.9081 94.2782 93.8824 94.2164 93.8369 94.1708C93.7913 94.1252 93.7294 94.0996 93.665 94.0996Z" fill="#353434"/>
<path d="M95.3192 95.5068C95.255 95.5068 95.1933 95.5323 95.1478 95.5776C95.1022 95.623 95.0765 95.6845 95.0762 95.7488V96.9109H95.5623V95.7488C95.562 95.6845 95.5363 95.623 95.4907 95.5776C95.4452 95.5323 95.3835 95.5068 95.3192 95.5068Z" fill="#353434"/>
<path d="M96.8232 94.0996C96.7587 94.0996 96.6969 94.1252 96.6513 94.1708C96.6057 94.2164 96.5801 94.2782 96.5801 94.3427V96.9111H97.0662V94.3427C97.0662 94.2782 97.0406 94.2164 96.995 94.1708C96.9495 94.1252 96.8876 94.0996 96.8232 94.0996Z" fill="#353434"/>
<path d="M98.4763 95.5068C98.4123 95.5071 98.3509 95.5327 98.3056 95.578C98.2602 95.6233 98.2347 95.6847 98.2344 95.7488V96.9109H98.7194V95.7488C98.7191 95.6845 98.6934 95.623 98.6478 95.5776C98.6023 95.5323 98.5406 95.5068 98.4763 95.5068Z" fill="#353434"/>
<path d="M99.9794 94.0996C99.9149 94.0996 99.8531 94.1252 99.8075 94.1708C99.7619 94.2164 99.7363 94.2782 99.7363 94.3427V96.9111H100.222V94.3427C100.222 94.2782 100.197 94.2164 100.151 94.1708C100.106 94.1252 100.044 94.0996 99.9794 94.0996Z" fill="#353434"/>
<path d="M101.636 95.5068C101.571 95.5068 101.51 95.5323 101.464 95.5776C101.419 95.623 101.393 95.6845 101.393 95.7488V96.9109H101.879V95.7488C101.878 95.6845 101.853 95.623 101.807 95.5776C101.762 95.5323 101.7 95.5068 101.636 95.5068Z" fill="#353434"/>
<path d="M103.14 94.0996C103.076 94.0999 103.015 94.1256 102.969 94.1712C102.924 94.2168 102.898 94.2784 102.898 94.3427V96.9111H103.383V94.3427C103.383 94.2782 103.358 94.2164 103.312 94.1708C103.267 94.1252 103.205 94.0996 103.14 94.0996Z" fill="#353434"/>
<path d="M104.794 95.5068C104.73 95.5068 104.668 95.5323 104.622 95.5776C104.577 95.623 104.551 95.6845 104.551 95.7488V96.9109H105.036V95.7488C105.036 95.6846 105.01 95.6231 104.965 95.5777C104.92 95.5323 104.858 95.5068 104.794 95.5068Z" fill="#353434"/>
<path d="M106.3 94.0996C106.235 94.0996 106.173 94.1252 106.128 94.1708C106.082 94.2164 106.057 94.2782 106.057 94.3427V96.9111H106.543V94.3427C106.543 94.3108 106.537 94.2792 106.524 94.2497C106.512 94.2202 106.494 94.1934 106.472 94.1708C106.449 94.1482 106.422 94.1303 106.393 94.1181C106.363 94.1059 106.332 94.0996 106.3 94.0996Z" fill="#353434"/>
<path d="M107.952 95.5068C107.888 95.5068 107.826 95.5323 107.781 95.5776C107.735 95.623 107.709 95.6845 107.709 95.7488V96.9109H108.195V95.7488C108.195 95.6845 108.169 95.623 108.124 95.5776C108.078 95.5323 108.016 95.5068 107.952 95.5068Z" fill="#353434"/>
<path d="M109.458 94.0996C109.393 94.0996 109.332 94.1252 109.286 94.1708C109.24 94.2164 109.215 94.2782 109.215 94.3427V96.9111H109.7V94.3427C109.7 94.2784 109.674 94.2168 109.629 94.1712C109.584 94.1256 109.522 94.0999 109.458 94.0996Z" fill="#353434"/>
<path d="M111.11 95.5068C111.046 95.5068 110.984 95.5323 110.939 95.5776C110.893 95.623 110.867 95.6845 110.867 95.7488V96.9109H111.353V95.7488C111.353 95.6845 111.327 95.623 111.282 95.5776C111.236 95.5323 111.175 95.5068 111.11 95.5068Z" fill="#353434"/>
<path d="M112.614 94.0996C112.55 94.0996 112.488 94.1252 112.442 94.1708C112.397 94.2164 112.371 94.2782 112.371 94.3427V96.9111H112.855V94.3427C112.855 94.2786 112.83 94.2171 112.785 94.1716C112.74 94.1261 112.678 94.1002 112.614 94.0996Z" fill="#353434"/>
<path d="M114.268 95.5068C114.204 95.5068 114.143 95.5323 114.097 95.5776C114.051 95.623 114.026 95.6845 114.025 95.7488V96.9109H114.512V95.7488C114.511 95.6845 114.486 95.623 114.44 95.5776C114.394 95.5323 114.333 95.5068 114.268 95.5068Z" fill="#353434"/>
<path d="M115.774 94.0996C115.71 94.0996 115.648 94.1252 115.602 94.1708C115.557 94.2164 115.531 94.2782 115.531 94.3427V96.9111H116.017V94.3427C116.017 94.2782 115.992 94.2164 115.946 94.1708C115.901 94.1252 115.839 94.0996 115.774 94.0996Z" fill="#353434"/>
<path d="M117.427 95.5068C117.362 95.5068 117.301 95.5323 117.255 95.5776C117.21 95.623 117.184 95.6845 117.184 95.7488V96.9109H117.67V95.7488C117.669 95.6845 117.644 95.623 117.598 95.5776C117.553 95.5323 117.491 95.5068 117.427 95.5068Z" fill="#353434"/>
<path d="M118.933 94.0996C118.868 94.0996 118.806 94.1252 118.761 94.1708C118.715 94.2164 118.689 94.2782 118.689 94.3427V96.9111H119.176V94.3427C119.176 94.2782 119.15 94.2164 119.104 94.1708C119.059 94.1252 118.997 94.0996 118.933 94.0996Z" fill="#353434"/>
<path d="M120.587 95.5068C120.523 95.5068 120.461 95.5323 120.415 95.5776C120.37 95.623 120.344 95.6845 120.344 95.7488V96.9109H120.829V95.7488C120.829 95.6847 120.803 95.6233 120.758 95.578C120.712 95.5327 120.651 95.5071 120.587 95.5068Z" fill="#353434"/>
<path d="M122.091 94.0996C122.026 94.0996 121.964 94.1252 121.919 94.1708C121.873 94.2164 121.848 94.2782 121.848 94.3427V96.9111H122.334V94.3427C122.334 94.2782 122.308 94.2164 122.263 94.1708C122.217 94.1252 122.155 94.0996 122.091 94.0996Z" fill="#353434"/>
<path d="M123.743 95.5068C123.679 95.5068 123.617 95.5323 123.572 95.5776C123.526 95.623 123.5 95.6845 123.5 95.7488V96.9109H123.986V95.7488C123.986 95.6845 123.96 95.623 123.915 95.5776C123.869 95.5323 123.807 95.5068 123.743 95.5068Z" fill="#353434"/>
<path d="M125.25 94.0996C125.185 94.0999 125.124 94.1256 125.079 94.1712C125.033 94.2168 125.008 94.2784 125.008 94.3427V96.9111H125.493V94.3427C125.493 94.2782 125.467 94.2164 125.422 94.1708C125.376 94.1252 125.314 94.0996 125.25 94.0996Z" fill="#353434"/>
<path d="M100.042 125.727H95.8457V175.735H100.042V125.727Z" fill="#984D23"/>
<path d="M14.2554 125.727H10.0586V175.735H14.2554V125.727Z" fill="#984D23"/>
<path d="M108.147 121.11H1.95515C1.15149 121.11 0.5 121.762 0.5 122.566V124.27C0.5 125.074 1.15149 125.726 1.95515 125.726H108.147C108.951 125.726 109.602 125.074 109.602 124.27V122.566C109.602 121.762 108.951 121.11 108.147 121.11Z" fill="#833F1D"/>
<path d="M95.8467 125.727H14.2559V142.851H95.8467V125.727Z" fill="#C67852"/>
<g opacity="0.6">
<path d="M99.6134 125.727H10.487C10.2504 125.727 10.0586 125.918 10.0586 126.155V138.116C10.0586 138.353 10.2504 138.544 10.487 138.544H99.6134C99.85 138.544 100.042 138.353 100.042 138.116V126.155C100.042 125.918 99.85 125.727 99.6134 125.727Z" fill="#833F1D"/>
</g>
<path d="M55.9469 125.727H54.1543V138.544H55.9469V125.727Z" fill="#833F1D"/>
<path d="M47.7034 113.647H17.679C16.4885 113.647 15.5234 114.613 15.5234 115.803V130.87C15.5234 132.06 16.4885 133.025 17.679 133.025H47.7034C48.8938 133.025 49.8589 132.06 49.8589 130.87V115.803C49.8589 114.613 48.8938 113.647 47.7034 113.647Z" fill="#74BF44"/>
<path d="M47.1128 148.013H18.2706C17.4221 148.013 16.7344 148.701 16.7344 149.549V157.59C16.7344 158.438 17.4221 159.126 18.2706 159.126H47.1128C47.9612 159.126 48.649 158.438 48.649 157.59V149.549C48.649 148.701 47.9612 148.013 47.1128 148.013Z" fill="#74BF44"/>
<path d="M46.1044 118.3C45.2165 118.3 44.4961 119.077 44.4961 120.025V179.171H47.715V120.024C47.7139 119.071 46.9935 118.3 46.1044 118.3Z" fill="#D5D6D5"/>
<path d="M19.2802 118.3C18.3923 118.3 17.6719 119.077 17.6719 120.025V179.171H20.8908V120.024C20.8896 119.071 20.1693 118.3 19.2802 118.3Z" fill="#D5D6D5"/>
<path d="M44.4961 120.024V179.17H46.1044V118.3C45.2153 118.3 44.4961 119.071 44.4961 120.024Z" fill="#B9B9BA"/>
<path d="M17.6719 120.024V179.17H19.2802V118.3C18.3911 118.3 17.6719 119.071 17.6719 120.024Z" fill="#B9B9BA"/>
<path d="M92.2229 113.647H62.1985C61.0081 113.647 60.043 114.613 60.043 115.803V130.87C60.043 132.06 61.0081 133.025 62.1985 133.025H92.2229C93.4134 133.025 94.3784 132.06 94.3784 130.87V115.803C94.3784 114.613 93.4134 113.647 92.2229 113.647Z" fill="#EE3F3F"/>
<path d="M91.6343 148.013H62.792C61.9436 148.013 61.2559 148.701 61.2559 149.549V157.59C61.2559 158.438 61.9436 159.126 62.792 159.126H91.6343C92.4827 159.126 93.1705 158.438 93.1705 157.59V149.549C93.1705 148.701 92.4827 148.013 91.6343 148.013Z" fill="#EE3F3F"/>
<path d="M90.627 118.3C89.7391 118.3 89.0176 119.077 89.0176 120.025V179.171H92.2365V120.024C92.2353 119.071 91.5161 118.3 90.627 118.3Z" fill="#D5D6D5"/>
<path d="M63.8028 118.3C62.9148 118.3 62.1934 119.077 62.1934 120.025V179.171H65.4122V120.024C65.4111 119.071 64.6919 118.3 63.8028 118.3Z" fill="#D5D6D5"/>
<path d="M89.0176 120.024V179.17H90.627V118.3C89.7379 118.3 89.0176 119.071 89.0176 120.024Z" fill="#B9B9BA"/>
<path d="M62.1934 120.024V179.17H63.8028V118.3C62.9093 118.3 62.1934 119.071 62.1934 120.024Z" fill="#B9B9BA"/>
<path d="M221.999 125.727H217.803V175.735H221.999V125.727Z" fill="#984D23"/>
<path d="M136.212 125.727H132.016V175.735H136.212V125.727Z" fill="#984D23"/>
<path d="M230.102 121.11H123.91C123.107 121.11 122.455 121.762 122.455 122.566V124.27C122.455 125.074 123.107 125.726 123.91 125.726H230.102C230.906 125.726 231.557 125.074 231.557 124.27V122.566C231.557 121.762 230.906 121.11 230.102 121.11Z" fill="#833F1D"/>
<path d="M217.802 125.727H136.211V142.851H217.802V125.727Z" fill="#C67852"/>
<g opacity="0.6">
<path d="M221.57 125.727H132.444C132.207 125.727 132.016 125.918 132.016 126.155V138.116C132.016 138.353 132.207 138.544 132.444 138.544H221.57C221.807 138.544 221.999 138.353 221.999 138.116V126.155C221.999 125.918 221.807 125.727 221.57 125.727Z" fill="#833F1D"/>
</g>
<path d="M177.904 125.727H176.111V138.544H177.904V125.727Z" fill="#833F1D"/>
<path d="M169.66 113.647H139.636C138.446 113.647 137.48 114.613 137.48 115.803V130.87C137.48 132.06 138.446 133.025 139.636 133.025H169.66C170.851 133.025 171.816 132.06 171.816 130.87V115.803C171.816 114.613 170.851 113.647 169.66 113.647Z" fill="#FCEA03"/>
<path d="M169.07 148.013H140.228C139.379 148.013 138.691 148.701 138.691 149.549V157.59C138.691 158.438 139.379 159.126 140.228 159.126H169.07C169.918 159.126 170.606 158.438 170.606 157.59V149.549C170.606 148.701 169.918 148.013 169.07 148.013Z" fill="#FCEA03"/>
<path d="M168.063 118.3C167.175 118.3 166.453 119.077 166.453 120.025V179.171H169.672V120.024C169.671 119.071 168.952 118.3 168.063 118.3Z" fill="#D5D6D5"/>
<path d="M141.238 118.3C140.35 118.3 139.629 119.077 139.629 120.025V179.171H142.848V120.024C142.847 119.071 142.127 118.3 141.238 118.3Z" fill="#D5D6D5"/>
<path d="M166.453 120.024V179.17H168.063V118.3C167.173 118.3 166.453 119.071 166.453 120.024Z" fill="#B9B9BA"/>
<path d="M139.629 120.024V179.17H141.238V118.3C140.348 118.3 139.629 119.071 139.629 120.024Z" fill="#B9B9BA"/>
<path d="M214.182 113.647H184.157C182.967 113.647 182.002 114.613 182.002 115.803V130.87C182.002 132.06 182.967 133.025 184.157 133.025H214.182C215.372 133.025 216.337 132.06 216.337 130.87V115.803C216.337 114.613 215.372 113.647 214.182 113.647Z" fill="#262267"/>
<path d="M213.591 148.013H184.749C183.901 148.013 183.213 148.701 183.213 149.549V157.59C183.213 158.438 183.901 159.126 184.749 159.126H213.591C214.44 159.126 215.128 158.438 215.128 157.59V149.549C215.128 148.701 214.44 148.013 213.591 148.013Z" fill="#262267"/>
<path d="M212.583 118.3C211.695 118.3 210.975 119.077 210.975 120.025V179.171H214.193V120.024C214.195 119.071 213.472 118.3 212.583 118.3Z" fill="#D5D6D5"/>
<path d="M185.759 118.3C184.871 118.3 184.15 119.077 184.15 120.025V179.171H187.369V120.024C187.368 119.071 186.648 118.3 185.759 118.3Z" fill="#D5D6D5"/>
<path d="M210.977 120.024V179.17H212.585V118.3C211.695 118.3 210.977 119.071 210.977 120.024Z" fill="#B9B9BA"/>
<path d="M184.15 120.024V179.17H185.759V118.3C184.87 118.3 184.15 119.071 184.15 120.024Z" fill="#B9B9BA"/>
</svg>
